<?xml version="1.0" encoding="UTF-8" standalone="no"?>
<!DOCTYPE svg PUBLIC "-//W3C//DTD SVG 1.1//EN"
 "http://www.w3.org/Graphics/SVG/1.1/DTD/svg11.dtd">
<!-- Generated by graphviz version 2.36.0 (20140111.2315)
 -->
<!-- Title: Rest Tasks Jun 2016 Pages: 1 -->
<svg width="622pt" height="200pt"
 viewBox="0.00 0.00 622.00 200.00" xmlns="http://www.w3.org/2000/svg" xmlns:xlink="http://www.w3.org/1999/xlink">
<g id="graph0" class="graph" transform="scale(1 1) rotate(0) translate(4 196)">
<title>Rest Tasks Jun 2016</title>
<polygon fill="white" stroke="none" points="-4,4 -4,-196 618,-196 618,4 -4,4"/>
<g id="clust1" class="cluster"><title>cluster_server_transport</title>
<polygon fill="none" stroke="black" points="8,-8 8,-184 606,-184 606,-8 8,-8"/>
</g>
<!-- PersistentConnectionHandler -->
<g id="node1" class="node"><title>PersistentConnectionHandler</title>
<polygon fill="none" stroke="black" points="118.5,-114.5 118.5,-175.5 597.5,-175.5 597.5,-114.5 118.5,-114.5"/>
<text text-anchor="middle" x="358" y="-160.3" font-family="Courier New" font-size="14.00">PersistentConnectionHandler</text>
<polyline fill="none" stroke="black" points="118.5,-152.5 597.5,-152.5 "/>
<text text-anchor="start" x="126.5" y="-137.3" font-family="Courier New" font-size="14.00">handleMessage(rawMessage)</text>
<text text-anchor="start" x="126.5" y="-122.3" font-family="Courier New" font-size="14.00"> registerApplication(type, application, persistentOnly)</text>
</g>
<!-- ConnectionHandler -->
<g id="node2" class="node"><title>ConnectionHandler</title>
<polygon fill="none" stroke="black" points="438.5,-29 438.5,-65 597.5,-65 597.5,-29 438.5,-29"/>
<text text-anchor="middle" x="518" y="-43.3" font-family="Courier New" font-size="14.00">ConnectionHandler</text>
</g>
<!-- ConnectionHandler&#45;&gt;PersistentConnectionHandler -->
<g id="edge1" class="edge"><title>ConnectionHandler&#45;&gt;PersistentConnectionHandler</title>
<path fill="none" stroke="black" d="M518,-65.4331C518,-65.4331 518,-104.32 518,-104.32"/>
<polygon fill="black" stroke="black" points="514.5,-104.32 518,-114.32 521.5,-104.32 514.5,-104.32"/>
</g>
<!-- RequestMessage -->
<g id="node3" class="node"><title>RequestMessage</title>
<polygon fill="none" stroke="black" points="232,-16.5 232,-77.5 366,-77.5 366,-16.5 232,-16.5"/>
<text text-anchor="middle" x="299" y="-62.3" font-family="Courier New" font-size="14.00">RequestMessage</text>
<polyline fill="none" stroke="black" points="232,-54.5 366,-54.5 "/>
<text text-anchor="start" x="240" y="-39.3" font-family="Courier New" font-size="14.00">type: number</text>
<text text-anchor="start" x="240" y="-24.3" font-family="Courier New" font-size="14.00"> data: Object</text>
</g>
<!-- ResponseMessage -->
<g id="node4" class="node"><title>ResponseMessage</title>
<polygon fill="none" stroke="black" points="16.5,-29 16.5,-65 159.5,-65 159.5,-29 16.5,-29"/>
<text text-anchor="middle" x="88" y="-43.3" font-family="Courier New" font-size="14.00">ResponseMessage</text>
</g>
</g>
</svg>
